<svg width="20" height="20" viewBox="0 0 20 20" fill="none" xmlns="http://www.w3.org/2000/svg">
<path d="M9.99186 7.48831V2.76288" stroke="white" stroke-width="1.25" stroke-linecap="round" stroke-linejoin="round"/>
<path d="M9.99186 17.2254V12.5" stroke="white" stroke-width="1.25" stroke-linecap="round" stroke-linejoin="round"/>
<path d="M17.2253 10.0001L12.5 9.95685" stroke="white" stroke-width="1.25" stroke-linecap="round" stroke-linejoin="round"/>
<path d="M7.5003 10.0001L2.77506 9.95685" stroke="white" stroke-width="1.25" stroke-linecap="round" stroke-linejoin="round"/>
<path d="M12.5 4.99998C12.5 4.99998 10.6587 2.50001 9.99996 2.5C9.34112 2.49999 7.5 5 7.5 5" stroke="white" stroke-width="1.25" stroke-linecap="round" stroke-linejoin="round"/>
<path d="M4.99998 12.5C4.99998 12.5 2.50001 10.6587 2.5 10C2.49999 9.34117 5 7.5 5 7.5" stroke="white" stroke-width="1.25" stroke-linecap="round" stroke-linejoin="round"/>
<path d="M15 7.5C15 7.5 17.5 9.34125 17.5 10C17.5 10.6588 15 12.5 15 12.5" stroke="white" stroke-width="1.25" stroke-linecap="round" stroke-linejoin="round"/>
<path d="M7.5 15C7.5 15 9.34121 17.5 9.99996 17.5C10.6588 17.5 12.5 15 12.5 15" stroke="white" stroke-width="1.25" stroke-linecap="round" stroke-linejoin="round"/>
</svg>
