<svg width="880" height="37" viewBox="0 0 880 37" fill="none" xmlns="http://www.w3.org/2000/svg">
<g clip-path="url(#clip0_103_1011)">
<g clip-path="url(#clip1_103_1011)">
<path d="M51.4279 3.13075L48.2207 2.27136L45.5179 12.3584L43.0778 3.25175L39.8704 4.11114L42.5069 13.9502L35.9402 7.38352L33.5923 9.73141L40.7951 16.9343L31.8251 14.5308L30.9658 17.738L40.7666 20.3641C40.6544 19.8802 40.595 19.3759 40.595 18.8577C40.595 15.1901 43.5682 12.2169 47.2358 12.2169C50.9035 12.2169 53.8767 15.1901 53.8767 18.8577C53.8767 19.3725 53.8181 19.8737 53.7072 20.3548L62.6144 22.7415L63.4737 19.5342L53.6339 16.8977L62.6045 14.494L61.7451 11.2867L51.9057 13.9232L58.4723 7.35656L56.1244 5.00867L49.0216 12.1116L51.4279 3.13075Z" fill="white" fill-opacity="0.48"/>
<path d="M53.6979 20.3922C53.4229 21.5547 52.8423 22.5991 52.0458 23.4358L58.4986 29.8887L60.8465 27.5408L53.6979 20.3922Z" fill="white" fill-opacity="0.48"/>
<path d="M51.9807 23.5033C51.1745 24.3267 50.1557 24.9411 49.0132 25.2578L51.3613 34.0208L54.5685 33.1614L51.9807 23.5033Z" fill="white" fill-opacity="0.48"/>
<path d="M48.8935 25.2898C48.3634 25.4261 47.8078 25.4985 47.2353 25.4985C46.6219 25.4985 46.0279 25.4153 45.464 25.2597L43.1138 34.0307L46.3211 34.89L48.8935 25.2898Z" fill="white" fill-opacity="0.48"/>
<path d="M45.3506 25.2273C44.2256 24.895 43.2249 24.2727 42.4352 23.4469L35.9665 29.9156L38.3144 32.2635L45.3506 25.2273Z" fill="white" fill-opacity="0.48"/>
<path d="M42.3819 23.3897C41.6057 22.5588 41.0404 21.5284 40.7713 20.3838L31.8351 22.7782L32.6945 25.9855L42.3819 23.3897Z" fill="white" fill-opacity="0.48"/>
</g>
<path d="M82.7754 9.80798V21.3656L75.3667 9.80798H72.4032V25.7652H75.3667V14.2988L82.7754 25.7652H85.7389V9.80798H82.7754Z" fill="white" fill-opacity="0.48"/>
<path d="M87.0742 12.7943H90.1289V9.80798H87.0742V12.7943ZM87.1198 25.7652V14.3672H90.0833V25.7652H87.1198Z" fill="white" fill-opacity="0.48"/>
<path d="M102.834 20.0662C102.834 16.1225 100.03 14.2532 97.0666 14.2304C94.0803 14.2076 91.322 16.1225 91.322 20.0662C91.322 24.0099 94.0803 25.9248 97.0666 25.902C99.7793 25.8792 101.649 24.6254 102.515 22.551L100.212 21.5935C99.5057 23.0069 98.3887 23.5084 97.0666 23.5312C95.9268 23.554 94.6274 23.0069 94.3538 20.978H102.766C102.811 20.6817 102.834 20.3854 102.834 20.0662ZM97.0666 16.5784C98.2064 16.6012 99.369 17.2167 99.7337 18.858H94.3994C94.787 17.1939 95.9496 16.5556 97.0666 16.5784Z" fill="white" fill-opacity="0.48"/>
<path d="M109.683 16.4872V14.2304H107.813V11.1757L104.85 12.0876V14.2304H102.981V16.4872H104.85V22.3914C104.85 24.6254 105.032 25.7652 108.497 25.7652H109.295V23.1665H108.497C107.95 23.1665 107.813 23.0753 107.813 22.3914V16.4872H109.683Z" fill="white" fill-opacity="0.48"/>
<path d="M114.086 23.2805L120.378 16.852V14.3672H110.94V16.852H117.05L110.758 23.2805V25.7652H120.446V23.2805H114.086Z" fill="white" fill-opacity="0.48"/>
<path d="M121.509 22.551L124.495 22.0951C124.7 23.2349 126.045 23.668 126.866 23.668C127.709 23.668 129.168 23.4856 129.168 22.1179C129.168 19.4507 121.851 22.7789 121.851 17.6726C121.851 14.39 125.658 14.2076 126.866 14.2076C128.006 14.2076 131.311 14.39 131.995 17.0343L129.168 17.627C128.918 16.4188 127.641 16.1909 126.957 16.1909C126.273 16.1909 124.814 16.3505 124.814 17.6726C124.814 20.317 132.132 16.9431 132.132 22.1179C132.132 25.6056 128.12 25.902 126.866 25.902C125.726 25.902 122.102 25.6056 121.509 22.551Z" fill="white" fill-opacity="0.48"/>
<path d="M135.982 20.0662C135.982 22.8473 137.463 23.6908 139.014 23.668C140.404 23.6452 141.362 23.0753 141.932 21.4796L144.371 22.665C143.482 24.9902 141.316 25.8792 139.014 25.902C136.027 25.9248 133.018 24.0099 133.018 20.0662C133.018 16.1225 136.027 14.2076 139.014 14.2304C141.316 14.2532 143.482 15.1423 144.371 17.4675L141.932 18.6529C141.362 17.0571 140.404 16.4872 139.014 16.4644C137.463 16.4416 135.982 17.2851 135.982 20.0662Z" fill="white" fill-opacity="0.48"/>
<path d="M152.326 14.1848C150.799 14.1848 149.408 14.9827 148.519 16.6924V9.80798H145.556V25.7652H148.519V21.7303C148.519 16.51 150.685 16.0769 151.483 16.0769C152.759 16.0769 152.942 17.3991 152.942 19.3367V25.7652H155.905V19.3367C155.905 16.9204 155.518 14.1848 152.326 14.1848Z" fill="white" fill-opacity="0.48"/>
<path d="M168.417 20.0662C168.417 16.1225 165.613 14.2532 162.65 14.2304C159.663 14.2076 156.905 16.1225 156.905 20.0662C156.905 24.0099 159.663 25.9248 162.65 25.902C165.362 25.8792 167.232 24.6254 168.098 22.551L165.796 21.5935C165.089 23.0069 163.972 23.5084 162.65 23.5312C161.51 23.554 160.211 23.0069 159.937 20.978H168.349C168.394 20.6817 168.417 20.3854 168.417 20.0662ZM162.65 16.5784C163.79 16.6012 164.952 17.2167 165.317 18.858H159.983C160.37 17.1939 161.533 16.5556 162.65 16.5784Z" fill="white" fill-opacity="0.48"/>
<path d="M233.402 3.0387C230.636 3.0387 228.402 5.24555 228.402 7.97784C228.402 10.6891 230.636 12.896 233.381 12.917C232.7 12.896 232.168 12.3495 232.168 11.6769C232.168 11.0044 232.721 10.4369 233.424 10.4369C236.402 10.4369 243.019 10.4369 245.934 10.4369C247.998 10.4369 249.679 8.77652 249.679 6.73783C249.679 4.69909 247.998 3.0387 245.934 3.0387L233.402 3.0387Z" fill="white" fill-opacity="0.48"/>
<path d="M227.324 12.917C224.558 12.917 222.324 15.1239 222.324 17.8561C222.324 20.5674 224.558 22.7742 227.303 22.7953C226.622 22.7742 226.09 22.2278 226.09 21.5552C226.09 20.8827 226.644 20.3152 227.346 20.3152C230.324 20.3152 236.941 20.3152 239.856 20.3152C241.92 20.3152 243.601 18.6548 243.601 16.6161C243.601 14.5774 241.92 12.917 239.856 12.917L227.324 12.917Z" fill="white" fill-opacity="0.48"/>
<path d="M223.123 22.7953C220.159 22.7953 217.766 25.1719 217.766 28.1144C217.766 31.0342 220.159 33.4108 223.1 33.4334C222.37 33.4108 221.801 32.8223 221.801 32.098C221.801 31.3737 222.393 30.7626 223.146 30.7626C226.337 30.7626 233.427 30.7626 236.55 30.7626C238.761 30.7626 240.562 28.9745 240.562 26.779C240.562 24.5834 238.761 22.7953 236.55 22.7953L223.123 22.7953Z" fill="white" fill-opacity="0.48"/>
<path d="M257.262 25.7653V9.80804H267.52V12.5436H260.271V16.3505H266.882V19.086H260.271V23.0297H267.657V25.7653H257.262Z" fill="white" fill-opacity="0.48"/>
<path d="M268.836 30.3245V14.4584H271.662V15.8262H272.073C272.331 15.3855 272.734 14.9979 273.281 14.6636C273.828 14.3141 274.611 14.1393 275.629 14.1393C276.541 14.1393 277.384 14.3672 278.159 14.8232C278.934 15.2639 279.557 15.9174 280.028 16.7836C280.5 17.6499 280.735 18.6985 280.735 19.9295V20.2942C280.735 21.5252 280.5 22.5738 280.028 23.4401C279.557 24.3063 278.934 24.9674 278.159 25.4233C277.384 25.8641 276.541 26.0844 275.629 26.0844C274.945 26.0844 274.367 26.0008 273.896 25.8337C273.44 25.6817 273.068 25.4841 272.779 25.241C272.506 24.9826 272.285 24.7243 272.118 24.4659H271.708V30.3245H268.836ZM274.762 23.5769C275.659 23.5769 276.396 23.2957 276.974 22.7334C277.566 22.1559 277.863 21.32 277.863 20.2258V19.9979C277.863 18.9037 277.566 18.0754 276.974 17.5131C276.381 16.9356 275.644 16.6469 274.762 16.6469C273.881 16.6469 273.144 16.9356 272.551 17.5131C271.959 18.0754 271.662 18.9037 271.662 19.9979V20.2258C271.662 21.32 271.959 22.1559 272.551 22.7334C273.144 23.2957 273.881 23.5769 274.762 23.5769Z" fill="white" fill-opacity="0.48"/>
<path d="M282.233 25.7653V14.4584H285.105V25.7653H282.233ZM283.669 13.1363C283.152 13.1363 282.711 12.9691 282.347 12.6347C281.997 12.3004 281.822 11.8597 281.822 11.3126C281.822 10.7655 281.997 10.3247 282.347 9.99041C282.711 9.65606 283.152 9.48889 283.669 9.48889C284.201 9.48889 284.641 9.65606 284.991 9.99041C285.341 10.3247 285.515 10.7655 285.515 11.3126C285.515 11.8597 285.341 12.3004 284.991 12.6347C284.641 12.9691 284.201 13.1363 283.669 13.1363Z" fill="white" fill-opacity="0.48"/>
<path d="M292.46 26.0844C291.365 26.0844 290.37 25.8565 289.473 25.4005C288.592 24.9446 287.893 24.2835 287.376 23.4173C286.859 22.551 286.601 21.5024 286.601 20.2714V19.9523C286.601 18.7213 286.859 17.6727 287.376 16.8064C287.893 15.9402 288.592 15.2791 289.473 14.8232C290.37 14.3672 291.365 14.1393 292.46 14.1393C293.539 14.1393 294.466 14.3293 295.241 14.7092C296.016 15.0891 296.639 15.6134 297.11 16.2821C297.596 16.9356 297.915 17.6803 298.067 18.5161L295.286 19.1088C295.225 18.6529 295.089 18.2426 294.876 17.8778C294.663 17.5131 294.359 17.2244 293.964 17.0116C293.584 16.7988 293.105 16.6924 292.528 16.6924C291.95 16.6924 291.426 16.8216 290.955 17.08C290.499 17.3231 290.134 17.6955 289.861 18.197C289.602 18.6833 289.473 19.2836 289.473 19.9979V20.2258C289.473 20.9401 289.602 21.548 289.861 22.0495C290.134 22.5358 290.499 22.9082 290.955 23.1665C291.426 23.4097 291.95 23.5313 292.528 23.5313C293.394 23.5313 294.048 23.3109 294.488 22.8702C294.944 22.4143 295.233 21.8216 295.355 21.0921L298.136 21.7532C297.938 22.5586 297.596 23.2957 297.11 23.9644C296.639 24.6179 296.016 25.1346 295.241 25.5145C294.466 25.8945 293.539 26.0844 292.46 26.0844Z" fill="white" fill-opacity="0.48"/>
<path d="M303.674 25.9476C302.792 25.9476 302.017 25.7501 301.349 25.3549C300.695 24.9446 300.186 24.3823 299.821 23.668C299.457 22.9538 299.274 22.1331 299.274 21.2061V14.4584H302.146V20.9781C302.146 21.8292 302.352 22.4674 302.762 22.893C303.187 23.3185 303.788 23.5313 304.563 23.5313C305.444 23.5313 306.128 23.2425 306.614 22.665C307.101 22.0723 307.344 21.2517 307.344 20.203V14.4584H310.216V25.7653H307.39V24.2835H306.979C306.797 24.6635 306.455 25.0358 305.953 25.4005C305.452 25.7653 304.692 25.9476 303.674 25.9476Z" fill="white" fill-opacity="0.48"/>
<path d="M312.273 25.7653V14.4584H315.099V15.735H315.51C315.677 15.2791 315.95 14.9447 316.33 14.732C316.726 14.5192 317.181 14.4128 317.698 14.4128H319.066V16.966H317.653C316.923 16.966 316.323 17.1636 315.852 17.5587C315.381 17.9386 315.145 18.5313 315.145 19.3368V25.7653H312.273Z" fill="white" fill-opacity="0.48"/>
<path d="M320.171 25.7653V14.4584H323.043V25.7653H320.171ZM321.607 13.1363C321.091 13.1363 320.65 12.9691 320.285 12.6347C319.936 12.3004 319.761 11.8597 319.761 11.3126C319.761 10.7655 319.936 10.3247 320.285 9.99041C320.65 9.65606 321.091 9.48889 321.607 9.48889C322.139 9.48889 322.58 9.65606 322.929 9.99041C323.279 10.3247 323.454 10.7655 323.454 11.3126C323.454 11.8597 323.279 12.3004 322.929 12.6347C322.58 12.9691 322.139 13.1363 321.607 13.1363Z" fill="white" fill-opacity="0.48"/>
<path d="M330.466 26.0844C329.342 26.0844 328.331 25.8565 327.435 25.4005C326.538 24.9446 325.831 24.2835 325.315 23.4173C324.798 22.551 324.539 21.51 324.539 20.2942V19.9295C324.539 18.7137 324.798 17.6727 325.315 16.8064C325.831 15.9402 326.538 15.2791 327.435 14.8232C328.331 14.3672 329.342 14.1393 330.466 14.1393C331.591 14.1393 332.602 14.3672 333.498 14.8232C334.395 15.2791 335.102 15.9402 335.618 16.8064C336.135 17.6727 336.393 18.7137 336.393 19.9295V20.2942C336.393 21.51 336.135 22.551 335.618 23.4173C335.102 24.2835 334.395 24.9446 333.498 25.4005C332.602 25.8565 331.591 26.0844 330.466 26.0844ZM330.466 23.5313C331.348 23.5313 332.077 23.2501 332.655 22.6878C333.232 22.1103 333.521 21.2896 333.521 20.2258V19.9979C333.521 18.9341 333.232 18.121 332.655 17.5587C332.093 16.9812 331.363 16.6924 330.466 16.6924C329.585 16.6924 328.856 16.9812 328.278 17.5587C327.701 18.121 327.412 18.9341 327.412 19.9979V20.2258C327.412 21.2896 327.701 22.1103 328.278 22.6878C328.856 23.2501 329.585 23.5313 330.466 23.5313Z" fill="white" fill-opacity="0.48"/>
<path d="M342.213 25.9476C341.332 25.9476 340.557 25.7501 339.888 25.3549C339.235 24.9446 338.726 24.3823 338.361 23.668C337.996 22.9538 337.814 22.1331 337.814 21.2061V14.4584H340.686V20.9781C340.686 21.8292 340.891 22.4674 341.302 22.893C341.727 23.3185 342.327 23.5313 343.102 23.5313C343.984 23.5313 344.668 23.2425 345.154 22.665C345.64 22.0723 345.884 21.2517 345.884 20.203V14.4584H348.756V25.7653H345.929V24.2835H345.519C345.336 24.6635 344.994 25.0358 344.493 25.4005C343.991 25.7653 343.232 25.9476 342.213 25.9476Z" fill="white" fill-opacity="0.48"/>
<path d="M355.508 26.0844C354.034 26.0844 352.826 25.7653 351.884 25.127C350.941 24.4887 350.372 23.5769 350.174 22.3915L352.818 21.7076C352.925 22.2395 353.099 22.6574 353.343 22.9614C353.601 23.2653 353.913 23.4857 354.277 23.6224C354.657 23.744 355.068 23.8048 355.508 23.8048C356.177 23.8048 356.671 23.6908 356.99 23.4629C357.309 23.2197 357.469 22.9234 357.469 22.5738C357.469 22.2243 357.317 21.9583 357.013 21.776C356.709 21.5784 356.223 21.4188 355.554 21.2972L354.916 21.1833C354.125 21.0313 353.403 20.8261 352.75 20.5678C352.096 20.2942 351.572 19.9219 351.177 19.4508C350.782 18.9797 350.584 18.3718 350.584 17.6271C350.584 16.5025 350.995 15.6438 351.815 15.0511C352.636 14.4432 353.715 14.1393 355.052 14.1393C356.314 14.1393 357.362 14.4204 358.198 14.9827C359.034 15.545 359.581 16.2821 359.84 17.194L357.172 18.0146C357.051 17.4371 356.8 17.0268 356.42 16.7836C356.055 16.5405 355.599 16.4189 355.052 16.4189C354.505 16.4189 354.087 16.5177 353.799 16.7152C353.51 16.8976 353.365 17.156 353.365 17.4903C353.365 17.855 353.517 18.1286 353.821 18.311C354.125 18.4781 354.536 18.6073 355.052 18.6985L355.691 18.8125C356.542 18.9645 357.309 19.1696 357.993 19.428C358.692 19.6711 359.239 20.0283 359.634 20.4994C360.045 20.9553 360.25 21.5784 360.25 22.3687C360.25 23.5541 359.817 24.4735 358.95 25.127C358.099 25.7653 356.952 26.0844 355.508 26.0844Z" fill="white" fill-opacity="0.48"/>
<path d="M426.825 19.7558C426.439 15.0753 422.518 11.3972 417.737 11.3972C412.701 11.3972 408.619 15.4797 408.619 20.5156C408.619 25.5516 412.701 29.6341 417.737 29.6341H431.415V19.7558H426.825Z" fill="white" fill-opacity="0.48"/>
<circle cx="430.658" cy="18.236" r="11.398" fill="white" fill-opacity="0.48"/>
<path d="M448.814 18.3886C448.814 16.8709 449.105 15.5446 449.687 14.4099C450.282 13.261 451.126 12.3745 452.219 11.7504C453.325 11.1263 454.623 10.8142 456.112 10.8142C457.275 10.8142 458.318 11.0412 459.24 11.4951C460.162 11.9489 460.906 12.5872 461.474 13.4099C462.041 14.2326 462.382 15.1829 462.495 16.2609H459.304C459.119 15.4099 458.729 14.7432 458.133 14.261C457.552 13.7645 456.821 13.5163 455.942 13.5163C454.75 13.5163 453.807 13.9631 453.112 14.8567C452.417 15.7503 452.07 16.9276 452.07 18.3886C452.07 19.8354 452.417 21.0127 453.112 21.9204C453.807 22.8141 454.75 23.2609 455.942 23.2609C456.821 23.2609 457.552 23.0197 458.133 22.5375C458.729 22.041 459.119 21.3673 459.304 20.5162H462.495C462.382 21.5942 462.041 22.5446 461.474 23.3672C460.906 24.1899 460.162 24.8282 459.24 25.2821C458.318 25.736 457.275 25.9629 456.112 25.9629C454.623 25.9629 453.325 25.6509 452.219 25.0268C451.126 24.4027 450.282 23.5233 449.687 22.3885C449.105 21.2396 448.814 19.9063 448.814 18.3886Z" fill="white" fill-opacity="0.48"/>
<path d="M463.264 10.9419H466.264V25.8353H463.264V10.9419Z" fill="white" fill-opacity="0.48"/>
<path d="M472.844 25.9629C471.695 25.9629 470.681 25.736 469.801 25.2821C468.936 24.814 468.262 24.1545 467.78 23.3034C467.312 22.4524 467.078 21.4736 467.078 20.3673C467.078 19.2609 467.312 18.2822 467.78 17.4311C468.262 16.5801 468.936 15.9276 469.801 15.4737C470.681 15.0056 471.695 14.7716 472.844 14.7716C473.993 14.7716 475 15.0056 475.865 15.4737C476.745 15.9276 477.418 16.5801 477.886 17.4311C478.369 18.2822 478.61 19.2609 478.61 20.3673C478.61 21.4878 478.369 22.4736 477.886 23.3247C477.418 24.1616 476.745 24.814 475.865 25.2821C475 25.736 473.993 25.9629 472.844 25.9629ZM472.844 23.5162C473.681 23.5162 474.34 23.2254 474.823 22.6438C475.319 22.0623 475.567 21.3034 475.567 20.3673C475.567 19.4311 475.319 18.6723 474.823 18.0907C474.34 17.5092 473.681 17.2184 472.844 17.2184C472.021 17.2184 471.362 17.5092 470.865 18.0907C470.383 18.6723 470.142 19.4311 470.142 20.3673C470.142 21.3034 470.383 22.0623 470.865 22.6438C471.362 23.2254 472.021 23.5162 472.844 23.5162Z" fill="white" fill-opacity="0.48"/>
<path d="M489.708 14.8993V25.8353H487.048L486.772 24.5162C486.389 24.9701 485.942 25.3247 485.431 25.58C484.921 25.8353 484.296 25.9629 483.559 25.9629C482.282 25.9629 481.24 25.5729 480.431 24.7927C479.623 23.9984 479.219 22.6793 479.219 20.8354V14.8993H482.218V20.4737C482.218 21.4666 482.389 22.2183 482.729 22.7289C483.084 23.2254 483.623 23.4736 484.346 23.4736C485.098 23.4736 485.679 23.197 486.091 22.6438C486.502 22.0765 486.708 21.2892 486.708 20.2822V14.8993H489.708Z" fill="white" fill-opacity="0.48"/>
<path d="M501.878 10.9419V25.8353H499.261L498.964 24.3247C498.127 25.4169 496.992 25.9629 495.559 25.9629C494.595 25.9629 493.73 25.736 492.964 25.2821C492.198 24.814 491.595 24.1545 491.155 23.3034C490.73 22.4524 490.517 21.4666 490.517 20.346C490.517 19.2396 490.73 18.268 491.155 17.4311C491.595 16.5801 492.198 15.9276 492.964 15.4737C493.744 15.0056 494.616 14.7716 495.581 14.7716C496.999 14.7716 498.098 15.2681 498.878 16.2609V10.9419H501.878ZM496.262 23.5162C497.07 23.5162 497.715 23.2325 498.198 22.6651C498.68 22.0836 498.921 21.3247 498.921 20.3886C498.921 19.4382 498.68 18.6723 498.198 18.0907C497.715 17.5092 497.07 17.2184 496.262 17.2184C495.453 17.2184 494.801 17.5092 494.304 18.0907C493.822 18.6723 493.581 19.4311 493.581 20.3673C493.581 21.3034 493.822 22.0623 494.304 22.6438C494.801 23.2254 495.453 23.5162 496.262 23.5162Z" fill="white" fill-opacity="0.48"/>
<path d="M502.268 10.9419L505.566 10.9206L508.31 21.8141L511.225 10.9419H514.098L516.927 21.8141L519.736 10.9419H522.97L518.842 25.8353H515.161L512.587 15.9418L510.076 25.8353H506.396L502.268 10.9419Z" fill="white" fill-opacity="0.48"/>
<path d="M532.98 23.3034V25.8353H531.448C530.073 25.8353 529.399 25.2396 529.427 24.0481C529.03 24.6722 528.541 25.1474 527.959 25.4736C527.378 25.7998 526.675 25.9629 525.853 25.9629C524.633 25.9629 523.647 25.6864 522.895 25.1332C522.158 24.5658 521.789 23.7715 521.789 22.7502C521.789 21.5871 522.214 20.6935 523.066 20.0694C523.931 19.4311 525.179 19.112 526.81 19.112H528.98V18.5801C528.98 18.0836 528.796 17.6936 528.427 17.4099C528.058 17.112 527.562 16.9631 526.938 16.9631C526.385 16.9631 525.931 17.0836 525.576 17.3248C525.222 17.5659 525.009 17.8921 524.938 18.3035H522.044C522.144 17.1829 522.64 16.3177 523.534 15.7078C524.427 15.0837 525.612 14.7716 527.087 14.7716C528.633 14.7716 529.824 15.112 530.661 15.7929C531.512 16.4737 531.938 17.4595 531.938 18.7503V22.6013C531.938 22.8708 531.994 23.0552 532.108 23.1545C532.221 23.2538 532.399 23.3034 532.64 23.3034H532.98ZM528.98 21.1119H526.789C526.165 21.1119 525.675 21.2396 525.321 21.4949C524.98 21.7361 524.81 22.0836 524.81 22.5375C524.81 22.9204 524.952 23.2254 525.236 23.4523C525.534 23.6793 525.931 23.7928 526.427 23.7928C527.207 23.7928 527.824 23.5729 528.278 23.1332C528.732 22.6793 528.966 22.0765 528.98 21.3247V21.1119Z" fill="white" fill-opacity="0.48"/>
<path d="M533.992 17.4311H532.183V14.8993H533.992V11.8355H536.992V14.8993H539.481V17.4311H536.992V22.2183C536.992 22.6013 537.07 22.8779 537.226 23.0481C537.396 23.2183 537.673 23.3034 538.056 23.3034H539.609V25.8353H537.12C535.034 25.8353 533.992 24.7927 533.992 22.7077V17.4311Z" fill="white" fill-opacity="0.48"/>
<path d="M550.367 21.6864C550.168 23.0197 549.601 24.0694 548.665 24.8353C547.743 25.5871 546.544 25.9629 545.069 25.9629C543.934 25.9629 542.941 25.736 542.09 25.2821C541.239 24.814 540.58 24.1545 540.112 23.3034C539.658 22.4524 539.431 21.4736 539.431 20.3673C539.431 19.2467 539.658 18.268 540.112 17.4311C540.58 16.5801 541.239 15.9276 542.09 15.4737C542.956 15.0056 543.956 14.7716 545.09 14.7716C546.551 14.7716 547.743 15.1475 548.665 15.8992C549.587 16.6368 550.154 17.6652 550.367 18.9843H547.261C547.133 18.4453 546.878 18.0198 546.495 17.7077C546.112 17.3815 545.636 17.2184 545.069 17.2184C544.289 17.2184 543.665 17.5092 543.197 18.0907C542.729 18.6723 542.495 19.4311 542.495 20.3673C542.495 21.3034 542.729 22.0623 543.197 22.6438C543.665 23.2254 544.289 23.5162 545.069 23.5162C545.651 23.5162 546.133 23.3531 546.516 23.0268C546.913 22.7006 547.168 22.2538 547.282 21.6864H550.367Z" fill="white" fill-opacity="0.48"/>
<path d="M557.373 14.7716C558.664 14.7716 559.721 15.1688 560.544 15.9631C561.38 16.7574 561.799 18.0694 561.799 19.8992V25.8353H558.799V20.0269C558.799 19.1191 558.615 18.4311 558.246 17.9631C557.877 17.4808 557.324 17.2397 556.586 17.2397C555.82 17.2397 555.217 17.5021 554.778 18.0269C554.352 18.5517 554.139 19.2822 554.139 20.2183V25.8353H551.139V10.9419H554.139V16.2397C554.948 15.261 556.026 14.7716 557.373 14.7716Z" fill="white" fill-opacity="0.48"/>
<path fill-rule="evenodd" clip-rule="evenodd" d="M610.112 18.2361C620.738 18.2361 626.83 12.1447 626.83 1.51904C626.83 12.1447 632.921 18.2361 643.547 18.2361C632.921 18.2361 626.83 24.3276 626.83 34.9533C626.83 24.3276 620.738 18.2361 610.112 18.2361Z" fill="white" fill-opacity="0.48"/>
<path d="M650.151 25.7657L655.987 9.80846H659.27L665.106 25.7657H662.005L660.729 22.0727H654.506L653.206 25.7657H650.151ZM655.303 19.7931H659.931L657.606 13.1595L655.303 19.7931Z" fill="white" fill-opacity="0.48"/>
<path d="M670.958 26.0393C669.803 26.0393 668.785 25.7885 667.904 25.287C667.022 24.7855 666.323 24.0864 665.806 23.1897C665.305 22.2931 665.054 21.2673 665.054 20.1123C665.054 18.9573 665.305 17.9315 665.806 17.0348C666.323 16.1382 667.022 15.4391 667.904 14.9376C668.785 14.4361 669.803 14.1853 670.958 14.1853C672.402 14.1853 673.618 14.5652 674.606 15.3251C675.593 16.0698 676.224 17.1032 676.498 18.4254H673.42C673.268 17.8783 672.964 17.4527 672.508 17.1488C672.068 16.8296 671.543 16.6701 670.935 16.6701C670.13 16.6701 669.446 16.974 668.884 17.5819C668.321 18.1898 668.04 19.0333 668.04 20.1123C668.04 21.1913 668.321 22.0347 668.884 22.6426C669.446 23.2505 670.13 23.5545 670.935 23.5545C671.543 23.5545 672.068 23.4025 672.508 23.0986C672.964 22.7946 673.268 22.3615 673.42 21.7992H676.498C676.224 23.0758 675.593 24.1016 674.606 24.8767C673.618 25.6517 672.402 26.0393 670.958 26.0393Z" fill="white" fill-opacity="0.48"/>
<path d="M677.948 25.7657V14.4589H680.524L680.774 15.9862C681.139 15.4391 681.618 15.006 682.211 14.6868C682.818 14.3525 683.518 14.1853 684.308 14.1853C686.056 14.1853 687.294 14.8616 688.024 16.2142C688.434 15.5911 688.981 15.0971 689.665 14.7324C690.364 14.3677 691.124 14.1853 691.944 14.1853C693.419 14.1853 694.551 14.626 695.341 15.5075C696.131 16.3889 696.526 17.6807 696.526 19.3828V25.7657H693.609V19.6564C693.609 18.6837 693.419 17.9391 693.039 17.4223C692.674 16.9056 692.104 16.6473 691.329 16.6473C690.539 16.6473 689.9 16.936 689.414 17.5135C688.943 18.091 688.707 18.8965 688.707 19.9299V25.7657H685.79V19.6564C685.79 18.6837 685.6 17.9391 685.22 17.4223C684.84 16.9056 684.255 16.6473 683.464 16.6473C682.689 16.6473 682.059 16.936 681.572 17.5135C681.101 18.091 680.866 18.8965 680.866 19.9299V25.7657H677.948Z" fill="white" fill-opacity="0.48"/>
<path d="M703.651 26.0393C702.511 26.0393 701.5 25.7961 700.619 25.3098C699.737 24.8235 699.046 24.1396 698.544 23.2581C698.043 22.3767 697.792 21.3585 697.792 20.2035C697.792 19.0333 698.035 17.9922 698.522 17.0804C699.023 16.1686 699.707 15.4619 700.573 14.9604C701.455 14.4437 702.488 14.1853 703.674 14.1853C704.783 14.1853 705.763 14.4285 706.614 14.9148C707.465 15.4011 708.126 16.0698 708.598 16.9208C709.084 17.7567 709.327 18.6913 709.327 19.7247C709.327 19.8919 709.319 20.0667 709.304 20.2491C709.304 20.4314 709.297 20.6214 709.281 20.819H700.687C700.748 21.7004 701.052 22.3919 701.599 22.8934C702.161 23.3949 702.838 23.6457 703.628 23.6457C704.221 23.6457 704.715 23.5165 705.11 23.2581C705.52 22.9846 705.824 22.635 706.022 22.2095H708.985C708.772 22.9238 708.415 23.5773 707.914 24.17C707.427 24.7475 706.819 25.2034 706.09 25.5377C705.376 25.8721 704.563 26.0393 703.651 26.0393ZM703.674 16.5561C702.959 16.5561 702.329 16.7613 701.782 17.1716C701.234 17.5667 700.885 18.1746 700.733 18.9953H706.364C706.318 18.2506 706.044 17.6579 705.543 17.2172C705.041 16.7765 704.418 16.5561 703.674 16.5561Z" fill="white" fill-opacity="0.48"/>
<path d="M722.228 26.0393C720.617 26.0393 719.234 25.6973 718.079 25.0134C716.924 24.3144 716.035 23.3493 715.412 22.1183C714.789 20.8721 714.477 19.436 714.477 17.8099C714.477 16.1838 714.789 14.7476 715.412 13.5014C716.035 12.2552 716.924 11.2826 718.079 10.5835C719.234 9.88445 720.617 9.53491 722.228 9.53491C724.143 9.53491 725.708 10.0136 726.924 10.9711C728.155 11.9133 728.923 13.2431 729.227 14.9604H726.012C725.815 14.0941 725.389 13.4178 724.736 12.9315C724.097 12.43 723.246 12.1793 722.183 12.1793C720.708 12.1793 719.553 12.6808 718.718 13.6838C717.882 14.6868 717.464 16.0622 717.464 17.8099C717.464 19.5576 717.882 20.9329 718.718 21.936C719.553 22.9238 720.708 23.4177 722.183 23.4177C723.246 23.4177 724.097 23.1897 724.736 22.7338C725.389 22.2627 725.815 21.6168 726.012 20.7962H729.227C728.923 22.4375 728.155 23.7217 726.924 24.6487C725.708 25.5757 724.143 26.0393 722.228 26.0393Z" fill="white" fill-opacity="0.48"/>
<path d="M736.027 26.0393C734.932 26.0393 733.945 25.7885 733.063 25.287C732.197 24.7855 731.505 24.094 730.989 23.2125C730.487 22.3159 730.237 21.2825 730.237 20.1123C730.237 18.9421 730.495 17.9163 731.012 17.0348C731.528 16.1382 732.22 15.4391 733.086 14.9376C733.967 14.4361 734.955 14.1853 736.05 14.1853C737.129 14.1853 738.101 14.4361 738.967 14.9376C739.849 15.4391 740.54 16.1382 741.042 17.0348C741.559 17.9163 741.817 18.9421 741.817 20.1123C741.817 21.2825 741.559 22.3159 741.042 23.2125C740.54 24.094 739.849 24.7855 738.967 25.287C738.086 25.7885 737.106 26.0393 736.027 26.0393ZM736.027 23.5089C736.787 23.5089 737.448 23.2277 738.01 22.6654C738.572 22.0879 738.853 21.2369 738.853 20.1123C738.853 18.9877 738.572 18.1442 738.01 17.5819C737.448 17.0044 736.794 16.7157 736.05 16.7157C735.274 16.7157 734.606 17.0044 734.043 17.5819C733.496 18.1442 733.223 18.9877 733.223 20.1123C733.223 21.2369 733.496 22.0879 734.043 22.6654C734.606 23.2277 735.267 23.5089 736.027 23.5089Z" fill="white" fill-opacity="0.48"/>
<path d="M743.286 25.7657V14.4589H745.885L746.158 16.5789C746.569 15.8494 747.123 15.2719 747.822 14.8464C748.537 14.4057 749.373 14.1853 750.33 14.1853V17.2628H749.509C748.871 17.2628 748.301 17.3616 747.8 17.5591C747.298 17.7567 746.903 18.0986 746.614 18.5849C746.341 19.0713 746.204 19.7475 746.204 20.6138V25.7657H743.286Z" fill="white" fill-opacity="0.48"/>
<path d="M751.184 30.7808V14.4589H753.783L754.102 16.0774C754.467 15.5759 754.946 15.1351 755.539 14.7552C756.146 14.3753 756.929 14.1853 757.887 14.1853C758.95 14.1853 759.9 14.4437 760.736 14.9604C761.572 15.4771 762.233 16.1838 762.719 17.0804C763.206 17.9771 763.449 18.9953 763.449 20.1351C763.449 21.2749 763.206 22.2931 762.719 23.1897C762.233 24.0712 761.572 24.7703 760.736 25.287C759.9 25.7885 758.95 26.0393 757.887 26.0393C757.035 26.0393 756.291 25.8797 755.653 25.5605C755.014 25.2414 754.497 24.7931 754.102 24.2156V30.7808H751.184ZM757.271 23.4861C758.198 23.4861 758.966 23.1746 759.573 22.5515C760.181 21.9284 760.485 21.1229 760.485 20.1351C760.485 19.1472 760.181 18.3342 759.573 17.6959C758.966 17.0576 758.198 16.7385 757.271 16.7385C756.329 16.7385 755.554 17.0576 754.946 17.6959C754.353 18.319 754.057 19.1245 754.057 20.1123C754.057 21.1001 754.353 21.9132 754.946 22.5515C755.554 23.1746 756.329 23.4861 757.271 23.4861Z" fill="white" fill-opacity="0.48"/>
<circle cx="826.803" cy="18.2361" r="12.9178" stroke="white" stroke-opacity="0.48" stroke-width="4.55921"/>
<path d="M861.9 15.511C861.9 16.3053 861.709 17.05 861.326 17.745C860.957 18.4401 860.368 19.0003 859.56 19.4259C858.766 19.8514 857.759 20.0641 856.539 20.0641H854.049V25.7662H851.071V10.9153H856.539C857.688 10.9153 858.666 11.1139 859.475 11.5111C860.283 11.9082 860.886 12.4543 861.283 13.1493C861.695 13.8444 861.9 14.6316 861.9 15.511ZM856.411 17.6599C857.234 17.6599 857.844 17.4755 858.241 17.1067C858.638 16.7238 858.837 16.1919 858.837 15.511C858.837 14.0642 858.028 13.3408 856.411 13.3408H854.049V17.6599H856.411Z" fill="white" fill-opacity="0.48"/>
<path d="M868.398 25.9577C867.263 25.9577 866.242 25.7095 865.334 25.213C864.426 24.7024 863.71 23.9861 863.185 23.0641C862.675 22.1421 862.419 21.0783 862.419 19.8727C862.419 18.667 862.682 17.6032 863.207 16.6812C863.746 15.7592 864.476 15.05 865.398 14.5536C866.32 14.043 867.348 13.7876 868.483 13.7876C869.618 13.7876 870.646 14.043 871.568 14.5536C872.49 15.05 873.214 15.7592 873.738 16.6812C874.277 17.6032 874.547 18.667 874.547 19.8727C874.547 21.0783 874.27 22.1421 873.717 23.0641C873.178 23.9861 872.441 24.7024 871.504 25.213C870.582 25.7095 869.547 25.9577 868.398 25.9577ZM868.398 23.362C868.937 23.362 869.441 23.2343 869.909 22.979C870.391 22.7095 870.774 22.3123 871.058 21.7875C871.341 21.2627 871.483 20.6244 871.483 19.8727C871.483 18.7521 871.185 17.894 870.59 17.2982C870.008 16.6883 869.292 16.3833 868.441 16.3833C867.59 16.3833 866.873 16.6883 866.292 17.2982C865.724 17.894 865.441 18.7521 865.441 19.8727C865.441 20.9932 865.717 21.8585 866.27 22.4684C866.838 23.0641 867.547 23.362 868.398 23.362Z" fill="white" fill-opacity="0.48"/>
<path d="M878.86 10.0217V25.7662H875.881V10.0217H878.86Z" fill="white" fill-opacity="0.48"/>
<path d="M892.228 13.9791L884.93 31.3406H881.76L884.313 25.4683L879.59 13.9791H882.93L885.973 22.2131L889.058 13.9791H892.228Z" fill="white" fill-opacity="0.48"/>
<path d="M907.621 13.8089C909.067 13.8089 910.231 14.2557 911.11 15.1493C912.004 16.0287 912.45 17.2628 912.45 18.8514V25.7662H909.472V19.2556C909.472 18.3337 909.238 17.6316 908.77 17.1493C908.301 16.6528 907.663 16.4046 906.855 16.4046C906.046 16.4046 905.401 16.6528 904.919 17.1493C904.45 17.6316 904.216 18.3337 904.216 19.2556V25.7662H901.238V19.2556C901.238 18.3337 901.004 17.6316 900.536 17.1493C900.068 16.6528 899.429 16.4046 898.621 16.4046C897.798 16.4046 897.146 16.6528 896.663 17.1493C896.195 17.6316 895.961 18.3337 895.961 19.2556V25.7662H892.983V13.9791H895.961V15.4046C896.344 14.9082 896.834 14.5181 897.429 14.2344C898.039 13.9508 898.706 13.8089 899.429 13.8089C900.351 13.8089 901.174 14.0075 901.897 14.4046C902.621 14.7876 903.181 15.3408 903.578 16.0642C903.961 15.3834 904.514 14.8373 905.238 14.4259C905.975 14.0146 906.77 13.8089 907.621 13.8089Z" fill="white" fill-opacity="0.48"/>
<path d="M913.66 19.8301C913.66 18.6386 913.894 17.5819 914.362 16.6599C914.844 15.738 915.49 15.0288 916.298 14.5323C917.121 14.0359 918.036 13.7876 919.043 13.7876C919.922 13.7876 920.688 13.9649 921.341 14.3195C922.007 14.6741 922.539 15.121 922.936 15.66V13.9791H925.936V25.7662H922.936V24.0428C922.553 24.596 922.022 25.057 921.341 25.4258C920.674 25.7804 919.901 25.9577 919.022 25.9577C918.029 25.9577 917.121 25.7024 916.298 25.1917C915.49 24.6811 914.844 23.9648 914.362 23.0428C913.894 22.1067 913.66 21.0358 913.66 19.8301ZM922.936 19.8727C922.936 19.1493 922.795 18.5323 922.511 18.0216C922.227 17.4968 921.844 17.0996 921.362 16.8301C920.88 16.5465 920.362 16.4046 919.809 16.4046C919.256 16.4046 918.745 16.5394 918.277 16.8089C917.809 17.0784 917.426 17.4755 917.128 18.0003C916.844 18.511 916.702 19.1209 916.702 19.8301C916.702 20.5393 916.844 21.1634 917.128 21.7024C917.426 22.2272 917.809 22.6315 918.277 22.9152C918.759 23.1989 919.27 23.3407 919.809 23.3407C920.362 23.3407 920.88 23.206 921.362 22.9365C921.844 22.6528 922.227 22.2556 922.511 21.745C922.795 21.2202 922.936 20.5961 922.936 19.8727Z" fill="white" fill-opacity="0.48"/>
<path d="M931.463 16.4259V22.128C931.463 22.5251 931.555 22.8159 931.739 23.0003C931.938 23.1705 932.264 23.2556 932.718 23.2556H934.101V25.7662H932.229C929.718 25.7662 928.463 24.5464 928.463 22.1067V16.4259H927.058V13.9791H928.463V11.0643H931.463V13.9791H934.101V16.4259H931.463Z" fill="white" fill-opacity="0.48"/>
<path d="M942.03 13.8089C942.924 13.8089 943.718 14.0075 944.413 14.4046C945.108 14.7876 945.647 15.3621 946.03 16.128C946.428 16.8798 946.626 17.7876 946.626 18.8514V25.7662H943.647V19.2556C943.647 18.3195 943.413 17.6032 942.945 17.1067C942.477 16.5961 941.839 16.3408 941.03 16.3408C940.208 16.3408 939.555 16.5961 939.073 17.1067C938.605 17.6032 938.371 18.3195 938.371 19.2556V25.7662H935.392V10.0217H938.371V15.4472C938.754 14.9366 939.265 14.5394 939.903 14.2557C940.541 13.9578 941.25 13.8089 942.03 13.8089Z" fill="white" fill-opacity="0.48"/>
<rect y="0.236328" width="225.508" height="36" fill="url(#paint0_linear_103_1011)"/>
<path d="M880 0.236328H727V36.2363H880V0.236328Z" fill="url(#paint1_linear_103_1011)"/>
</g>
<defs>
<linearGradient id="paint0_linear_103_1011" x1="26.7359" y1="18.2363" x2="144.708" y2="18.2363" gradientUnits="userSpaceOnUse">
<stop stop-color="#20212A"/>
<stop offset="1" stop-color="#20212A" stop-opacity="0"/>
</linearGradient>
<linearGradient id="paint1_linear_103_1011" x1="861.86" y1="18.2363" x2="727" y2="18.2363" gradientUnits="userSpaceOnUse">
<stop stop-color="#161721"/>
<stop offset="1" stop-color="#161721" stop-opacity="0"/>
</linearGradient>
<clipPath id="clip0_103_1011">
<rect width="880" height="37" fill="white"/>
</clipPath>
<clipPath id="clip1_103_1011">
<rect width="33.4342" height="33.4342" fill="white" transform="translate(30.7077 1.51917)"/>
</clipPath>
</defs>
</svg>
