<svg width="32" height="32" viewBox="0 0 32 32" fill="none" xmlns="http://www.w3.org/2000/svg">
<rect width="32" height="32" rx="16" fill="white" fill-opacity="0.08"/>
<path d="M12.6667 14.3333C13.2189 14.3333 13.6667 13.8856 13.6667 13.3333C13.6667 12.781 13.2189 12.3333 12.6667 12.3333C12.1144 12.3333 11.6667 12.781 11.6667 13.3333C11.6667 13.8856 12.1144 14.3333 12.6667 14.3333Z" stroke="white" stroke-width="1.3" stroke-linecap="round" stroke-linejoin="round"/>
<path d="M21.9985 15.3333C22 15.6467 22 15.9795 22 16.3333C22 19.3189 22 20.8117 21.0725 21.7392C20.145 22.6667 18.6522 22.6667 15.6667 22.6667C12.6811 22.6667 11.1883 22.6667 10.2608 21.7392C9.33334 20.8117 9.33334 19.3189 9.33334 16.3333C9.33334 13.3478 9.33334 11.855 10.2608 10.9275C11.1883 10 12.6811 10 15.6667 10C16.0205 10 16.3533 10 16.6667 10.0015" stroke="white" stroke-width="1.3" stroke-linecap="round"/>
<path d="M20.3333 9.33331L20.5053 9.798C20.7307 10.4073 20.8435 10.712 21.0657 10.9342C21.288 11.1565 21.5927 11.2692 22.202 11.4947L22.6667 11.6666L22.202 11.8386C21.5927 12.0641 21.288 12.1768 21.0657 12.3991C20.8435 12.6213 20.7307 12.926 20.5053 13.5353L20.3333 14L20.1614 13.5353C19.9359 12.926 19.8232 12.6213 19.6009 12.3991C19.3787 12.1768 19.074 12.0641 18.4647 11.8386L18 11.6666L18.4647 11.4947C19.074 11.2692 19.3787 11.1565 19.6009 10.9342C19.8232 10.712 19.9359 10.4073 20.1614 9.798L20.3333 9.33331Z" stroke="white" stroke-width="1.3" stroke-linejoin="round"/>
<path d="M11 22.3333C13.915 18.8499 17.1827 14.256 21.9983 17.3615" stroke="white" stroke-width="1.3"/>
</svg>
