<svg width="24" height="24" viewBox="0 0 24 24" fill="none" xmlns="http://www.w3.org/2000/svg">
<rect width="24" height="24" rx="12" fill="white" fill-opacity="0.08"/>
<path d="M7.04297 8.92567C6.48829 9.81833 6.16797 10.8718 6.16797 12.0001C6.16797 15.2217 8.77964 17.8334 12.0013 17.8334C12.611 17.8334 13.1989 17.7398 13.7513 17.5664M16.8739 15.2084C17.4811 14.288 17.8346 13.1853 17.8346 12.0001C17.8346 8.77842 15.2229 6.16675 12.0013 6.16675C11.3916 6.16675 10.8037 6.26029 10.2513 6.4338" stroke="white" stroke-width="0.875" stroke-linecap="round" stroke-linejoin="round"/>
<path d="M7.91667 9.08333C8.561 9.08333 9.08333 8.561 9.08333 7.91667C9.08333 7.27233 8.561 6.75 7.91667 6.75C7.27233 6.75 6.75 7.27233 6.75 7.91667C6.75 8.561 7.27233 9.08333 7.91667 9.08333Z" stroke="white" stroke-width="0.875" stroke-linecap="round" stroke-linejoin="round"/>
<path d="M16.0846 17.2501C16.729 17.2501 17.2513 16.7277 17.2513 16.0834C17.2513 15.4391 16.729 14.9167 16.0846 14.9167C15.4403 14.9167 14.918 15.4391 14.918 16.0834C14.918 16.7277 15.4403 17.2501 16.0846 17.2501Z" stroke="white" stroke-width="0.875" stroke-linecap="round" stroke-linejoin="round"/>
<path d="M9.66667 14.9166C10.311 14.9166 10.8333 14.3943 10.8333 13.7499C10.8333 13.1056 10.311 12.5833 9.66667 12.5833C9.02233 12.5833 8.5 13.1056 8.5 13.7499C8.5 14.3943 9.02233 14.9166 9.66667 14.9166Z" stroke="white" stroke-width="0.875" stroke-linecap="round" stroke-linejoin="round"/>
<path d="M11.9987 14.9166C13.6095 14.9166 14.9154 13.6107 14.9154 11.9999C14.9154 10.3891 13.6095 9.08325 11.9987 9.08325C10.3879 9.08325 9.08203 10.3891 9.08203 11.9999C9.08203 12.1997 9.10212 12.3948 9.14038 12.5833" stroke="white" stroke-width="0.875" stroke-linecap="round" stroke-linejoin="round"/>
<path d="M12.0052 12H12" stroke="white" stroke-width="1.16667" stroke-linecap="round" stroke-linejoin="round"/>
</svg>
