<svg width="16" height="16" viewBox="0 0 16 16" fill="none" xmlns="http://www.w3.org/2000/svg">
<path d="M2 8C5 8 8 5 8 2C8 5 11 8 14 8C11 8 8 11 8 14C8 11 5 8 2 8Z" fill="#1E293B"/>
<path d="M1.33331 13.0003C1.88887 13.0003 2.99998 11.8892 2.99998 11.3337C2.99998 11.8892 4.11109 13.0003 4.66665 13.0003C4.11109 13.0003 2.99998 14.1115 2.99998 14.667C2.99998 14.1115 1.88887 13.0003 1.33331 13.0003Z" fill="#1E293B" stroke="#1E293B" stroke-width="0.416667" stroke-linejoin="round"/>
<path d="M11 3.33335C11.5556 3.33335 12.6667 2.22222 12.6667 1.66669C12.6667 2.22222 13.7778 3.33335 14.3333 3.33335C13.7778 3.33335 12.6667 4.44449 12.6667 5.00002C12.6667 4.44449 11.5556 3.33335 11 3.33335Z" fill="#1E293B" stroke="#1E293B" stroke-width="0.416667" stroke-linejoin="round"/>
</svg>
