<svg width="24" height="24" viewBox="0 0 24 24" fill="none" xmlns="http://www.w3.org/2000/svg">
<path d="M7.69494 17.3999V6.32995H13.1699C13.7899 6.32995 14.3799 6.46995 14.9399 6.74994C15.5099 7.01994 15.9699 7.42494 16.3199 7.96493C16.6799 8.50493 16.8599 9.16992 16.8599 9.95992C16.8599 10.7499 16.6749 11.4249 16.3049 11.9849C15.9349 12.5349 15.4549 12.9549 14.8649 13.2449C14.2849 13.5349 13.6749 13.6799 13.0349 13.6799H9.20992V11.6849H12.3749C12.7649 11.6849 13.1249 11.5399 13.4549 11.2499C13.7849 10.9599 13.9499 10.5299 13.9499 9.95992C13.9499 9.35992 13.7849 8.93993 13.4549 8.69993C13.1249 8.45993 12.7799 8.33993 12.4199 8.33993H10.4249V17.3999H7.69494ZM14.6399 12.2549L17.2499 17.3999H14.2499L11.7749 12.2549H14.6399ZM11.9999 23.9998C10.3399 23.9998 8.78493 23.6898 7.33494 23.0698C5.88495 22.4498 4.60996 21.5898 3.50997 20.4898C2.40998 19.3898 1.54999 18.1148 0.929992 16.6649C0.309997 15.2149 0 13.6599 0 11.9999C0 10.3399 0.309997 8.78493 0.929992 7.33494C1.54999 5.88495 2.40998 4.60996 3.50997 3.50997C4.60996 2.40998 5.88495 1.54999 7.33494 0.929993C8.78493 0.309998 10.3399 0 11.9999 0C13.6599 0 15.2149 0.309998 16.6649 0.929993C18.1148 1.54999 19.3898 2.40998 20.4898 3.50997C21.5898 4.60996 22.4498 5.88495 23.0698 7.33494C23.6898 8.78493 23.9998 10.3399 23.9998 11.9999C23.9998 13.6599 23.6898 15.2149 23.0698 16.6649C22.4498 18.1148 21.5898 19.3898 20.4898 20.4898C19.3898 21.5898 18.1148 22.4498 16.6649 23.0698C15.2149 23.6898 13.6599 23.9998 11.9999 23.9998ZM11.9999 20.9248C13.6399 20.9248 15.1349 20.5248 16.4849 19.7248C17.8349 18.9248 18.9098 17.8499 19.7098 16.4999C20.5198 15.1399 20.9248 13.6399 20.9248 11.9999C20.9248 10.3599 20.5198 8.86493 19.7098 7.51494C18.9098 6.15495 17.8349 5.07496 16.4849 4.27496C15.1349 3.47497 13.6399 3.07497 11.9999 3.07497C10.3499 3.07497 8.84993 3.47497 7.49994 4.27496C6.14995 5.07496 5.06996 6.15495 4.25996 7.51494C3.45997 8.86493 3.05997 10.3599 3.05997 11.9999C3.05997 13.6399 3.45997 15.1349 4.25996 16.4849C5.06996 17.8349 6.14995 18.9148 7.49994 19.7248C8.84993 20.5248 10.3499 20.9248 11.9999 20.9248Z" fill="white"/>
</svg>
