<svg width="16" height="16" viewBox="0 0 16 16" fill="none" xmlns="http://www.w3.org/2000/svg">
<path d="M2.22002 5.93998C2.22002 5.81332 2.26668 5.68665 2.36668 5.58665C2.56002 5.39332 2.88002 5.39332 3.07335 5.58665L7.42002 9.93332C7.74002 10.2533 8.26002 10.2533 8.58002 9.93332L12.9267 5.58665C13.12 5.39332 13.44 5.39332 13.6334 5.58665C13.8267 5.77998 13.8267 6.09998 13.6334 6.29332L9.28668 10.64C8.94668 10.98 8.48668 11.1733 8.00002 11.1733C7.51335 11.1733 7.05335 10.9867 6.71335 10.64L2.36668 6.29332C2.27335 6.19332 2.22002 6.06665 2.22002 5.93998Z" fill="white"/>
</svg>
