<svg width="16" height="16" viewBox="0 0 16 16" fill="none" xmlns="http://www.w3.org/2000/svg">
<path d="M4.73863 11.1655L11.1661 4.73804C11.1764 4.72778 11.1929 4.72009 11.2145 4.72009C11.236 4.72016 11.2525 4.72777 11.2628 4.73804C11.273 4.74837 11.2807 4.76484 11.2807 4.78638C11.2807 4.80792 11.273 4.82439 11.2628 4.83471L4.8353 11.2622C4.82503 11.2725 4.80845 11.2801 4.78697 11.2802C4.76543 11.2802 4.74896 11.2724 4.73863 11.2622C4.72831 11.2519 4.72068 11.2355 4.72068 11.2139C4.72068 11.1922 4.72831 11.1759 4.73863 11.1655Z" stroke="white"/>
<path d="M4.73863 4.7378C4.74896 4.72756 4.76543 4.71984 4.78697 4.71984C4.80845 4.71992 4.82503 4.72753 4.8353 4.7378L11.2628 11.1653C11.273 11.1756 11.2807 11.1921 11.2807 11.2136C11.2807 11.2352 11.273 11.2516 11.2628 11.262C11.2525 11.2722 11.236 11.2798 11.2145 11.2799C11.1929 11.2799 11.1764 11.2722 11.1661 11.262L4.73863 4.83447C4.72831 4.82415 4.72068 4.80778 4.72068 4.78613C4.72068 4.76448 4.72831 4.74812 4.73863 4.7378Z" stroke="white"/>
</svg>
